# 3ds Max Wavefront OBJ Exporter v0.97b - (c)2007 guruware
# File Created: 16.12.2017 00:18:19

mtllib Low-Poly Rock.mtl

#
# object Sphere001
#

v  -185.4954 41.7151 -55.5282
v  -185.4954 21.4380 -66.3562
v  -213.1804 23.2210 -54.8887
v  -205.5237 36.7626 -47.2321
v  -224.6478 8.9997 -27.2038
v  -219.4609 19.9911 -27.2038
v  -213.1803 8.9997 0.4812
v  -211.1649 19.9911 -7.1754
v  -185.4954 23.2210 11.9487
v  -185.4954 36.7626 1.1206
v  -157.8104 21.4380 0.4812
v  -165.4670 41.7151 -7.1754
v  -146.3429 13.7710 -27.2038
v  -157.1710 28.3244 -27.2038
v  -157.8104 13.7710 -54.8887
v  -165.4670 28.3244 -47.2321
v  -185.4954 -0.0000 -67.2605
v  -185.4954 -14.2248 -66.3562
v  -213.1804 -12.2491 -54.8887
v  -213.8198 -0.0000 -55.5282
v  -224.6478 -14.2248 -27.2038
v  -225.5521 -0.0000 -27.2038
v  -213.1803 -14.2248 0.4812
v  -213.8198 -0.0000 1.1206
v  -185.4954 -12.2491 11.9487
v  -185.4954 -0.0000 12.8529
v  -157.8104 -14.2248 0.4812
v  -157.1710 -0.0000 1.1206
v  -146.3429 -14.2248 -27.2038
v  -145.4387 -0.0000 -27.2038
v  -157.8104 -14.2248 -54.8887
v  -157.1710 -0.0000 -55.5281
v  -165.4670 -28.3244 -7.1754
v  -185.4954 -24.8737 1.1206
v  -205.5237 -24.8737 -47.2321
v  -185.4954 -28.3244 -55.5282
v  -205.5237 -28.3244 -7.1754
v  -213.8198 -28.3244 -27.2038
v  -165.4670 -28.3244 -47.2321
v  -157.1710 -28.3244 -27.2038
# 40 vertices

vn 0.0622 0.5102 -0.8578
vn 0.0598 0.2800 -0.9581
vn -0.7120 0.3375 -0.6157
vn -0.6139 0.6220 -0.4861
vn -0.9730 0.2285 0.0322
vn -0.8935 0.4442 0.0657
vn -0.7004 0.2577 0.6656
vn -0.7168 0.4794 0.5063
vn -0.0838 0.3450 0.9349
vn -0.1279 0.6194 0.7746
vn 0.7198 0.2800 0.6352
vn 0.6505 0.5102 0.5626
vn 0.9525 0.3032 -0.0272
vn 0.8306 0.5536 -0.0600
vn 0.6928 0.3032 -0.6543
vn 0.6298 0.5536 -0.5449
vn 0.0011 -0.0096 -1.0000
vn -0.0157 -0.3412 -0.9399
vn -0.6637 -0.3451 -0.6637
vn -0.7092 -0.0140 -0.7048
vn -0.9399 -0.3412 -0.0157
vn -0.9998 0.0174 -0.0007
vn -0.6535 -0.3412 0.6757
vn -0.7065 0.0174 0.7075
vn 0.0000 -0.3451 0.9386
vn -0.0031 -0.0140 0.9999
vn 0.6535 -0.3412 0.6757
vn 0.7078 -0.0096 0.7063
vn 0.9439 -0.3301 0.0000
vn 1.0000 0.0010 0.0000
vn 0.6675 -0.3301 -0.6675
vn 0.7071 0.0010 -0.7071
vn -0.2058 0.9749 0.0852
vn -0.5843 0.7746 0.2420
vn 0.6078 0.7531 -0.2518
vn -0.1452 -0.9876 0.0602
vn 0.2029 -0.9756 -0.0840
vn 0.0000 -1.0000 -0.0000
vn -0.0317 -0.6088 -0.7927
vn -0.5511 -0.6266 -0.5511
vn -0.7927 -0.6088 -0.0317
vn -0.5381 -0.6088 0.5829
vn 0.0000 -0.6266 0.7794
vn 0.5381 -0.6088 0.5829
vn 0.7931 -0.6091 0.0000
vn 0.5608 -0.6091 -0.5608
# 46 vertex normals

vt 0.4193 0.3449 0.0000
vt 0.4931 0.3636 0.0000
vt 0.4377 0.4695 0.0000
vt 0.3934 0.4359 0.0000
vt 0.4076 0.5995 0.0000
vt 0.3497 0.5650 0.0000
vt 0.3840 0.7228 0.0000
vt 0.3302 0.6925 0.0000
vt 0.3105 0.8425 0.0000
vt 0.2408 0.8220 0.0000
vt 0.2821 0.9680 0.0000
vt 0.1900 0.9138 0.0000
vt 0.5097 0.0005 0.0000
vt 0.6159 0.0140 0.0000
vt 0.5962 0.1451 0.0000
vt 0.5189 0.1202 0.0000
vt 0.5433 0.2538 0.0000
vt 0.4519 0.2356 0.0000
vt 0.5633 0.3929 0.0000
vt 0.6048 0.4128 0.0000
vt 0.5511 0.5213 0.0000
vt 0.5126 0.5076 0.0000
vt 0.5255 0.6359 0.0000
vt 0.4557 0.6164 0.0000
vt 0.4918 0.7501 0.0000
vt 0.4265 0.7359 0.0000
vt 0.4579 0.8703 0.0000
vt 0.4064 0.8632 0.0000
vt 0.4570 0.9995 0.0000
vt 0.3841 0.9949 0.0000
vt 0.7166 0.0513 0.0000
vt 0.7815 0.0924 0.0000
vt 0.7146 0.2018 0.0000
vt 0.6574 0.1680 0.0000
vt 0.6657 0.3120 0.0000
vt 0.6058 0.2792 0.0000
vt 0.1797 0.3842 0.0000
vt 0.2216 0.2593 0.0000
vt 0.2386 0.5296 0.0000
vt 0.3357 0.1973 0.0000
vt 0.8618 0.5280 0.0000
vt 0.8164 0.6295 0.0000
vt 0.6095 0.5394 0.0000
vt 0.6581 0.4407 0.0000
vt 0.7213 0.6723 0.0000
vt 0.6135 0.6471 0.0000
vt 0.7339 0.3667 0.0000
vt 0.8279 0.4302 0.0000
vt 0.5686 0.7671 0.0000
vt 0.5294 0.8764 0.0000
vt 0.5384 0.9797 0.0000
vt 0.8373 0.1572 0.0000
vt 0.7807 0.2456 0.0000
# 53 texture coords

g Sphere001
usemtl 09___Default
s 1
f 1/1/1 2/2/2 3/3/3 4/4/4 
f 4/4/4 3/3/3 5/5/5 6/6/6 
f 6/6/6 5/5/5 7/7/7 8/8/8 
f 8/8/8 7/7/7 9/9/9 10/10/10 
f 10/10/10 9/9/9 11/11/11 12/12/12 
f 12/13/12 11/14/11 13/15/13 14/16/14 
f 14/16/14 13/15/13 15/17/15 16/18/16 
f 16/18/16 15/17/15 2/2/2 1/1/1 
f 17/19/17 18/20/18 19/21/19 20/22/20 
f 20/22/20 19/21/19 21/23/21 22/24/22 
f 22/24/22 21/23/21 23/25/23 24/26/24 
f 24/26/24 23/25/23 25/27/25 26/28/26 
f 26/28/26 25/27/25 27/29/27 28/30/28 
f 28/31/28 27/32/27 29/33/29 30/34/30 
f 30/34/30 29/33/29 31/35/31 32/36/32 
f 32/36/32 31/35/31 18/20/18 17/19/17 
s off
f 1/1/33 4/4/33 10/37/33 12/38/33 
f 10/37/34 4/4/34 6/6/34 8/39/34 
f 14/40/35 16/18/35 1/1/35 12/38/35 
f 33/41/36 34/42/36 35/43/36 36/44/36 
f 35/43/37 34/42/37 37/45/37 38/46/37 
f 39/47/38 40/48/38 33/41/38 36/44/38 
s 1
f 2/2/2 17/19/17 20/22/20 3/3/3 
f 3/3/3 20/22/20 22/24/22 5/5/5 
f 5/5/5 22/24/22 24/26/24 7/7/7 
f 7/7/7 24/26/24 26/28/26 9/9/9 
f 9/9/9 26/28/26 28/30/28 11/11/11 
f 11/14/11 28/31/28 30/34/30 13/15/13 
f 13/15/13 30/34/30 32/36/32 15/17/15 
f 15/17/15 32/36/32 17/19/17 2/2/2 
f 18/20/18 36/44/39 35/43/40 19/21/19 
f 19/21/19 35/43/40 38/46/41 21/23/21 
f 21/23/21 38/46/41 37/49/42 23/25/23 
f 23/25/23 37/49/42 34/50/43 25/27/25 
f 25/27/25 34/50/43 33/51/44 27/29/27 
f 27/32/27 33/52/44 40/53/45 29/33/29 
f 29/33/29 40/53/45 39/47/46 31/35/31 
f 31/35/31 39/47/46 36/44/39 18/20/18 
# 38 polygons

