# 3ds Max Wavefront OBJ Exporter v0.97b - (c)2007 guruware
# File Created: 16.12.2017 00:23:17

mtllib Low-Poly Round Tree.mtl

#
# object Box002
#

v  -424.4425 0.1566 28.1603
v  -424.4425 0.1566 1.4036
v  -406.3408 0.1566 1.4036
v  -406.3408 0.1566 28.1603
v  -406.3408 19.8147 16.8407
v  -419.9771 19.8147 16.8407
v  -388.2391 0.1566 28.1603
v  -388.2391 0.1566 1.4036
v  -392.7045 19.8147 1.4036
v  -392.7045 19.8147 16.8407
v  -388.2391 0.1566 -25.3532
v  -406.3408 0.1566 -25.3532
v  -406.3408 19.8147 -14.0335
v  -392.7045 19.8147 -14.0335
v  -424.4425 0.1566 -25.3532
v  -419.9771 19.8147 1.4036
v  -419.9771 19.8147 -14.0335
v  -406.3408 36.4878 12.0301
v  -416.7990 36.4878 12.0301
v  -395.8826 36.4878 1.4036
v  -395.8826 36.4878 12.0301
v  -406.3408 36.4878 -9.2230
v  -395.8826 36.4878 -9.2230
v  -416.7990 36.4878 1.4036
v  -416.7990 36.4878 -9.2230
v  -406.3408 53.1609 10.5190
v  -414.4158 53.1609 10.5190
v  -398.2658 53.1609 1.4036
v  -398.2658 53.1609 10.5190
v  -406.3408 53.1609 -7.7118
v  -398.2658 53.1609 -7.7118
v  -414.4158 53.1609 1.4036
v  -414.4158 53.1609 -7.7118
v  -382.4602 65.1222 28.3610
v  -406.3408 65.1222 36.9409
v  -382.4602 65.1222 -25.5538
v  -372.3367 65.1222 1.4036
v  -430.2213 65.1222 -25.5538
v  -406.3408 65.1222 -34.1337
v  -430.2213 65.1222 28.3610
v  -440.3448 65.1222 1.4036
v  -374.6047 78.1318 37.2286
v  -406.3408 78.1318 48.6309
v  -374.6047 78.1318 -34.4215
v  -361.1511 78.1318 1.4036
v  -438.0768 78.1318 -34.4215
v  -406.3408 78.1318 -45.8237
v  -438.0768 78.1318 37.2286
v  -451.5305 78.1318 1.4036
v  -369.9990 94.9441 42.4277
v  -406.3408 94.9441 55.4847
v  -369.9990 94.9441 -39.6206
v  -354.5930 94.9441 1.4036
v  -442.6826 94.9441 -39.6206
v  -406.3408 94.9441 -52.6776
v  -442.6826 94.9441 42.4277
v  -458.0886 94.9441 1.4036
v  -369.9990 117.7837 42.4277
v  -406.3408 117.7837 55.4847
v  -369.9990 117.7837 -39.6206
v  -354.5930 117.7837 1.4036
v  -442.6826 117.7837 -39.6206
v  -406.3408 117.7837 -52.6776
v  -442.6826 117.7837 42.4277
v  -458.0886 117.7837 1.4036
v  -382.1629 141.7745 28.6966
v  -406.3408 141.7745 37.3833
v  -382.1629 141.7745 -25.8894
v  -371.9134 141.7745 1.4036
v  -430.5187 141.7745 -25.8894
v  -406.3408 141.7745 -34.5762
v  -430.5187 141.7745 28.6966
v  -440.7682 141.7745 1.4036
v  -395.4925 155.8488 13.6496
v  -406.3408 160.0104 17.5472
v  -395.4925 160.0104 -10.8424
v  -390.8936 155.8488 1.4036
v  -417.1891 155.8488 -10.8424
v  -406.3408 160.0104 -14.7401
v  -417.1891 160.0104 13.6496
v  -421.7879 155.8488 1.4036
# 81 vertices

vn 0.0000 -1.0000 -0.0000
vn 0.0000 0.4990 0.8666
vn 0.9752 0.2215 -0.0000
vn 0.0000 0.4990 -0.8666
vn -0.9752 0.2215 -0.0000
vn 0.0000 0.2772 0.9608
vn 0.9823 0.1872 -0.0000
vn 0.0000 0.2772 -0.9608
vn -0.9823 0.1872 -0.0000
vn 0.0000 0.0903 0.9959
vn 0.9899 0.1415 -0.0000
vn 0.0000 0.0903 -0.9959
vn -0.9899 0.1415 -0.0000
vn 0.1179 -0.8906 0.4392
vn 0.4519 -0.8830 -0.1268
vn -0.1179 -0.8906 -0.4392
vn -0.4519 -0.8830 0.1268
vn 0.4519 -0.8830 0.1268
vn -0.4519 -0.8830 -0.1268
vn -0.1179 -0.8906 0.4392
vn 0.1179 -0.8906 -0.4392
vn 0.2582 -0.6457 0.7186
vn 0.7293 -0.6270 -0.2739
vn -0.2582 -0.6457 -0.7186
vn -0.7293 -0.6270 0.2739
vn 0.7293 -0.6270 0.2739
vn -0.7293 -0.6270 -0.2739
vn -0.2582 -0.6457 0.7186
vn 0.2582 -0.6457 -0.7186
vn 0.3157 -0.3582 0.8787
vn 0.8794 -0.3430 -0.3302
vn -0.3157 -0.3582 -0.8787
vn -0.8794 -0.3430 0.3302
vn 0.8794 -0.3430 0.3302
vn -0.8794 -0.3430 -0.3302
vn -0.3157 -0.3582 0.8787
vn 0.3157 -0.3582 -0.8787
vn 0.3381 0.0000 0.9411
vn 0.9362 0.0000 -0.3516
vn -0.3381 0.0000 -0.9411
vn -0.9362 0.0000 0.3516
vn 0.9362 0.0000 0.3516
vn -0.9362 0.0000 -0.3516
vn -0.3381 0.0000 0.9411
vn 0.3381 0.0000 -0.9411
vn 0.2757 0.5790 0.7673
vn 0.7756 0.5600 -0.2913
vn -0.2757 0.5790 -0.7673
vn -0.7756 0.5600 0.2913
vn 0.7756 0.5600 0.2913
vn -0.7756 0.5600 -0.2913
vn -0.2757 0.5790 0.7673
vn 0.2757 0.5790 -0.7673
vn 0.2995 0.7543 0.5842
vn 0.6564 0.7352 -0.1691
vn -0.2995 0.7543 -0.5842
vn -0.6564 0.7352 0.1691
vn 0.5813 0.7839 0.2183
vn -0.5813 0.7839 -0.2183
vn -0.2363 0.7153 0.6576
vn 0.2363 0.7153 -0.6576
vn 0.0000 1.0000 -0.0000
vn -0.4033 0.9022 -0.1533
vn 0.4033 0.9022 0.1533
# 64 vertex normals

vt 0.7602 0.7249 0.0000
vt 0.7816 0.6535 0.0000
vt 0.8354 0.7040 0.0000
vt 0.7669 0.7596 0.0000
vt 0.6939 0.7472 0.0000
vt 0.7044 0.7032 0.0000
vt 0.7739 0.8078 0.0000
vt 0.7140 0.8731 0.0000
vt 0.6620 0.8313 0.0000
vt 0.6919 0.7912 0.0000
vt 0.7747 0.4975 0.0000
vt 0.7658 0.5470 0.0000
vt 0.6921 0.5617 0.0000
vt 0.6869 0.5178 0.0000
vt 0.7591 0.5823 0.0000
vt 0.7047 0.6545 0.0000
vt 0.7035 0.6057 0.0000
vt 0.6412 0.7315 0.0000
vt 0.6494 0.6943 0.0000
vt 0.6161 0.7981 0.0000
vt 0.6348 0.7678 0.0000
vt 0.6392 0.5810 0.0000
vt 0.6303 0.5468 0.0000
vt 0.6485 0.6557 0.0000
vt 0.6486 0.6172 0.0000
vt 0.5888 0.7176 0.0000
vt 0.5943 0.6895 0.0000
vt 0.5689 0.7691 0.0000
vt 0.5834 0.7441 0.0000
vt 0.5868 0.5970 0.0000
vt 0.5795 0.5710 0.0000
vt 0.5938 0.6567 0.0000
vt 0.5935 0.6242 0.0000
vt 0.8348 0.6024 0.0000
vt 0.6599 0.9415 0.0000
vt 0.6314 0.8718 0.0000
vt 0.5965 0.8270 0.0000
vt 0.5530 0.7938 0.0000
vt 0.8622 0.7640 0.0000
vt 0.8620 0.5427 0.0000
vt 0.0996 0.1590 0.0000
vt 0.0798 0.1693 0.0000
vt 0.0005 0.1396 0.0000
vt 0.0569 0.0773 0.0000
vt 0.0916 0.1921 0.0000
vt 0.1036 0.2149 0.0000
vt 0.0819 0.2969 0.0000
vt 0.0111 0.2338 0.0000
vt 0.1235 0.2045 0.0000
vt 0.1433 0.1940 0.0000
vt 0.2229 0.2231 0.0000
vt 0.1671 0.2859 0.0000
vt 0.1314 0.1713 0.0000
vt 0.1194 0.1486 0.0000
vt 0.1402 0.0665 0.0000
vt 0.2116 0.1289 0.0000
vt 0.5848 0.1327 0.0000
vt 0.6852 0.0959 0.0000
vt 0.7051 0.1455 0.0000
vt 0.6047 0.1829 0.0000
vt 0.7886 0.0523 0.0000
vt 0.8731 0.0005 0.0000
vt 0.9217 0.0369 0.0000
vt 0.8170 0.0982 0.0000
vt 0.2629 0.2556 0.0000
vt 0.2768 0.3073 0.0000
vt 0.1752 0.3403 0.0000
vt 0.3725 0.2137 0.0000
vt 0.4843 0.1731 0.0000
vt 0.5050 0.2227 0.0000
vt 0.3904 0.2637 0.0000
vt 0.0697 0.3570 0.0000
vt 0.7270 0.1957 0.0000
vt 0.6261 0.2358 0.0000
vt 0.9682 0.0887 0.0000
vt 0.8458 0.1461 0.0000
vt 0.2911 0.3600 0.0000
vt 0.1843 0.3958 0.0000
vt 0.5259 0.2750 0.0000
vt 0.4092 0.3176 0.0000
vt 0.0699 0.4273 0.0000
vt 0.7530 0.2598 0.0000
vt 0.6527 0.3031 0.0000
vt 0.9995 0.1695 0.0000
vt 0.8716 0.2112 0.0000
vt 0.3138 0.4248 0.0000
vt 0.2079 0.4616 0.0000
vt 0.5510 0.3415 0.0000
vt 0.4339 0.3862 0.0000
vt 0.1000 0.5096 0.0000
vt 0.7889 0.3442 0.0000
vt 0.6869 0.3895 0.0000
vt 0.9943 0.2729 0.0000
vt 0.8964 0.2998 0.0000
vt 0.3488 0.5096 0.0000
vt 0.2506 0.5447 0.0000
vt 0.5809 0.4289 0.0000
vt 0.4649 0.4724 0.0000
vt 0.1693 0.5870 0.0000
vt 0.2841 0.8029 0.0000
vt 0.1949 0.7786 0.0000
vt 0.2399 0.7157 0.0000
vt 0.2750 0.7211 0.0000
vt 0.1468 0.6880 0.0000
vt 0.2328 0.6400 0.0000
vt 0.2206 0.6785 0.0000
vt 0.3399 0.5683 0.0000
vt 0.2953 0.6314 0.0000
vt 0.2602 0.6262 0.0000
vt 0.3885 0.6586 0.0000
vt 0.3667 0.7595 0.0000
vt 0.3026 0.7072 0.0000
vt 0.3147 0.6685 0.0000
# 113 texture coords

g Box002
usemtl 09___Default
s 2
f 1/1/1 2/2/1 3/3/1 4/4/1 
s 8
f 1/1/2 4/4/2 5/5/2 6/6/2 
s 16
f 7/7/3 8/8/3 9/9/3 10/10/3 
s 32
f 11/11/4 12/12/4 13/13/4 14/14/4 
s 64
f 15/15/5 2/2/5 16/16/5 17/17/5 
s off
f 6/6/6 5/5/6 18/18/6 19/19/6 
f 10/10/7 9/9/7 20/20/7 21/21/7 
f 14/14/8 13/13/8 22/22/8 23/23/8 
f 17/17/9 16/16/9 24/24/9 25/25/9 
f 19/19/10 18/18/10 26/26/10 27/27/10 
f 21/21/11 20/20/11 28/28/11 29/29/11 
f 23/23/12 22/22/12 30/30/12 31/31/12 
f 25/25/13 24/24/13 32/32/13 33/33/13 
s 2
f 2/2/1 15/15/1 12/12/1 3/34/1 
s 16
f 8/8/3 11/35/3 14/36/3 9/9/3 
s 64
f 2/2/5 1/1/5 6/6/5 16/16/5 
s off
f 9/9/7 14/36/7 23/37/7 20/20/7 
f 16/16/9 6/6/9 19/19/9 24/24/9 
f 20/20/11 23/37/11 31/38/11 28/28/11 
f 24/24/13 19/19/13 27/27/13 32/32/13 
s 2
f 3/3/1 8/39/1 7/7/1 4/4/1 
s 8
f 4/4/2 7/7/2 10/10/2 5/5/2 
s 32
f 12/12/4 15/15/4 17/17/4 13/13/4 
s off
f 5/5/6 10/10/6 21/21/6 18/18/6 
f 13/13/8 17/17/8 25/25/8 22/22/8 
f 18/18/10 21/21/10 29/29/10 26/26/10 
f 22/22/12 25/25/12 33/33/12 30/30/12 
s 2
f 12/12/1 11/11/1 8/40/1 3/34/1 
s off
f 26/41/14 29/42/14 34/43/14 35/44/14 
f 28/45/15 31/46/15 36/47/15 37/48/15 
f 30/49/16 33/50/16 38/51/16 39/52/16 
f 32/53/17 27/54/17 40/55/17 41/56/17 
f 29/42/18 28/45/18 37/48/18 34/43/18 
f 33/50/19 32/53/19 41/56/19 38/51/19 
f 27/54/20 26/41/20 35/44/20 40/55/20 
f 31/46/21 30/49/21 39/52/21 36/47/21 
f 35/57/22 34/58/22 42/59/22 43/60/22 
f 37/61/23 36/62/23 44/63/23 45/64/23 
f 39/52/24 38/65/24 46/66/24 47/67/24 
f 41/68/25 40/69/25 48/70/25 49/71/25 
f 34/58/26 37/61/26 45/64/26 42/59/26 
f 38/65/27 41/68/27 49/71/27 46/66/27 
f 40/69/28 35/57/28 43/60/28 48/70/28 
f 36/47/29 39/52/29 47/67/29 44/72/29 
f 43/60/30 42/59/30 50/73/30 51/74/30 
f 45/64/31 44/63/31 52/75/31 53/76/31 
f 47/67/32 46/66/32 54/77/32 55/78/32 
f 49/71/33 48/70/33 56/79/33 57/80/33 
f 42/59/34 45/64/34 53/76/34 50/73/34 
f 46/66/35 49/71/35 57/80/35 54/77/35 
f 48/70/36 43/60/36 51/74/36 56/79/36 
f 44/72/37 47/67/37 55/78/37 52/81/37 
f 51/74/38 50/73/38 58/82/38 59/83/38 
f 53/76/39 52/75/39 60/84/39 61/85/39 
f 55/78/40 54/77/40 62/86/40 63/87/40 
f 57/80/41 56/79/41 64/88/41 65/89/41 
f 50/73/42 53/76/42 61/85/42 58/82/42 
f 54/77/43 57/80/43 65/89/43 62/86/43 
f 56/79/44 51/74/44 59/83/44 64/88/44 
f 52/81/45 55/78/45 63/87/45 60/90/45 
f 59/83/46 58/82/46 66/91/46 67/92/46 
f 61/85/47 60/84/47 68/93/47 69/94/47 
f 63/87/48 62/86/48 70/95/48 71/96/48 
f 65/89/49 64/88/49 72/97/49 73/98/49 
f 58/82/50 61/85/50 69/94/50 66/91/50 
f 62/86/51 65/89/51 73/98/51 70/95/51 
f 64/88/52 59/83/52 67/92/52 72/97/52 
f 60/90/53 63/87/53 71/96/53 68/99/53 
f 67/100/54 66/101/54 74/102/54 75/103/54 
f 69/104/55 68/99/55 76/105/55 77/106/55 
f 71/96/56 70/107/56 78/108/56 79/109/56 
f 73/110/57 72/111/57 80/112/57 81/113/57 
f 66/101/58 69/104/58 77/106/58 74/102/58 
f 70/107/59 73/110/59 81/113/59 78/108/59 
f 72/111/60 67/100/60 75/103/60 80/112/60 
f 68/99/61 71/96/61 79/109/61 76/105/61 
f 76/105/62 79/109/62 80/112/62 75/103/62 
f 80/112/63 79/109/63 78/108/63 81/113/63 
f 74/102/64 77/106/64 76/105/64 75/103/64 
# 79 polygons

