# 3ds Max Wavefront OBJ Exporter v0.97b - (c)2007 guruware
# File Created: 16.12.2017 00:23:37

mtllib Low-Poly Pine Tree.mtl

#
# object Box001
#

v  -300.6914 0.0000 19.4038
v  -300.6914 0.0000 -12.1692
v  -267.8044 0.0000 -12.1692
v  -267.8044 0.0000 19.4038
v  -274.5181 16.6633 13.7537
v  -293.9777 16.6633 13.7537
v  -274.5181 16.6633 -6.5192
v  -293.9777 16.6633 -6.5192
v  -276.9265 30.4289 11.2446
v  -291.5693 30.4289 11.2446
v  -276.9265 30.4289 -4.0101
v  -291.5693 30.4289 -4.0101
v  -277.9372 44.1945 10.1917
v  -290.5586 44.1945 10.1917
v  -277.9372 44.1945 -2.9571
v  -290.5586 44.1945 -2.9571
v  -239.9166 38.8735 49.8013
v  -328.5792 38.8735 49.8013
v  -239.9166 38.8735 -42.5668
v  -328.5792 38.8735 -42.5668
v  -259.7919 79.4081 29.0953
v  -308.7039 79.4081 29.0953
v  -259.7919 79.4081 -21.8608
v  -308.7039 79.4081 -21.8608
v  -241.0996 65.2439 48.5688
v  -327.3962 65.2439 48.5688
v  -241.0996 65.2439 -41.3343
v  -327.3962 65.2439 -41.3343
v  -264.1007 104.4356 24.6065
v  -304.3951 104.4356 24.6065
v  -264.1007 104.4356 -17.3719
v  -304.3951 104.4356 -17.3719
v  -244.7083 90.1244 44.8093
v  -323.7875 90.1244 44.8093
v  -244.7083 90.1244 -37.5748
v  -323.7875 90.1244 -37.5748
v  -266.1935 122.5733 22.4262
v  -302.3023 122.5733 22.4262
v  -266.1935 122.5733 -15.1917
v  -302.3023 122.5733 -15.1917
v  -251.3459 112.8812 37.8942
v  -317.1498 112.8812 37.8942
v  -251.3459 112.8812 -30.6597
v  -317.1498 112.8812 -30.6597
v  -282.8669 170.6548 13.7794
v  -282.8669 170.6548 -6.5449
# 46 vertices

vn 0.0000 -1.0000 -0.0000
vn 0.0000 0.3211 0.9470
vn 0.9275 0.3737 -0.0000
vn 0.0000 0.3211 -0.9470
vn -0.9275 0.3737 -0.0000
vn 0.0000 0.1793 0.9838
vn 0.9850 0.1723 -0.0000
vn 0.0000 0.1793 -0.9838
vn -0.9850 0.1723 -0.0000
vn 0.0000 0.0763 0.9971
vn 0.9973 0.0732 -0.0000
vn 0.0000 0.0763 -0.9971
vn -0.9973 0.0732 -0.0000
vn 0.0000 -0.9911 -0.1331
vn -0.1386 -0.9903 -0.0000
vn 0.0000 -0.9911 0.1331
vn 0.1386 -0.9903 -0.0000
vn 0.0000 0.4549 0.8905
vn 0.8979 0.4403 -0.0000
vn 0.0000 0.4549 -0.8905
vn -0.8979 0.4403 -0.0000
vn 0.0000 -0.8087 -0.5882
vn -0.6039 -0.7970 -0.0000
vn 0.0000 -0.8087 0.5882
vn 0.6039 -0.7970 -0.0000
vn 0.0000 0.5216 0.8532
vn 0.8624 0.5062 -0.0000
vn 0.0000 0.5216 -0.8532
vn -0.8624 0.5062 -0.0000
vn 0.0000 -0.8160 -0.5780
vn -0.5938 -0.8046 -0.0000
vn 0.0000 -0.8160 0.5780
vn 0.5938 -0.8046 -0.0000
vn 0.0000 0.5678 0.8232
vn 0.8338 0.5521 -0.0000
vn 0.0000 0.5678 -0.8232
vn -0.8338 0.5521 -0.0000
vn 0.0000 -0.8474 -0.5310
vn -0.5466 -0.8374 -0.0000
vn 0.0000 -0.8474 0.5310
vn 0.5466 -0.8374 -0.0000
vn 0.0000 0.3852 0.9228
vn 0.8778 0.4789 -0.0000
vn 0.0000 0.3852 -0.9228
vn -0.8600 0.5103 -0.0000
# 45 vertex normals

vt 0.5553 0.1549 0.0000
vt 0.5069 0.1088 0.0000
vt 0.5558 0.0555 0.0000
vt 0.6061 0.1034 0.0000
vt 0.5760 0.2216 0.0000
vt 0.5360 0.2179 0.0000
vt 0.5195 0.1771 0.0000
vt 0.3770 0.0972 0.0000
vt 0.4433 0.0870 0.0000
vt 0.4413 0.1288 0.0000
vt 0.3957 0.1326 0.0000
vt 0.4845 0.1445 0.0000
vt 0.5087 0.2246 0.0000
vt 0.4933 0.1958 0.0000
vt 0.4363 0.1606 0.0000
vt 0.4023 0.1599 0.0000
vt 0.4677 0.1722 0.0000
vt 0.4833 0.2384 0.0000
vt 0.4700 0.2156 0.0000
vt 0.4292 0.1903 0.0000
vt 0.4017 0.1889 0.0000
vt 0.4517 0.1984 0.0000
vt 0.4876 0.4814 0.0000
vt 0.4686 0.5010 0.0000
vt 0.3473 0.5007 0.0000
vt 0.4830 0.3601 0.0000
vt 0.4891 0.5208 0.0000
vt 0.4937 0.6421 0.0000
vt 0.5081 0.5012 0.0000
vt 0.6294 0.5015 0.0000
vt 0.3057 0.3995 0.0000
vt 0.3805 0.3221 0.0000
vt 0.3918 0.6818 0.0000
vt 0.3111 0.6039 0.0000
vt 0.6710 0.6026 0.0000
vt 0.5962 0.6801 0.0000
vt 0.5849 0.3204 0.0000
vt 0.6656 0.3983 0.0000
vt 0.2390 0.3923 0.0000
vt 0.3709 0.2557 0.0000
vt 0.3868 0.7487 0.0000
vt 0.2444 0.6112 0.0000
vt 0.7377 0.6099 0.0000
vt 0.6058 0.7465 0.0000
vt 0.5899 0.2535 0.0000
vt 0.7323 0.3909 0.0000
vt 0.2014 0.2857 0.0000
vt 0.2630 0.2219 0.0000
vt 0.2794 0.7840 0.0000
vt 0.2129 0.7198 0.0000
vt 0.7753 0.7165 0.0000
vt 0.7137 0.7803 0.0000
vt 0.6973 0.2182 0.0000
vt 0.7638 0.2823 0.0000
vt 0.1326 0.2785 0.0000
vt 0.2535 0.1533 0.0000
vt 0.2745 0.8531 0.0000
vt 0.1441 0.7271 0.0000
vt 0.8441 0.7237 0.0000
vt 0.7232 0.8489 0.0000
vt 0.7022 0.1491 0.0000
vt 0.8326 0.2751 0.0000
vt 0.1030 0.1842 0.0000
vt 0.1582 0.1271 0.0000
vt 0.1796 0.8804 0.0000
vt 0.1200 0.8229 0.0000
vt 0.8737 0.8180 0.0000
vt 0.8185 0.8751 0.0000
vt 0.7971 0.1217 0.0000
vt 0.8567 0.1792 0.0000
vt 0.0514 0.1798 0.0000
vt 0.1520 0.0756 0.0000
vt 0.1769 0.9322 0.0000
vt 0.0684 0.8273 0.0000
vt 0.9253 0.8224 0.0000
vt 0.8247 0.9266 0.0000
vt 0.7998 0.0700 0.0000
vt 0.9083 0.1748 0.0000
vt 0.0005 0.0342 0.0000
vt 0.0381 0.9995 0.0000
vt 0.0059 0.9684 0.0000
vt 0.9720 0.9724 0.0000
vt 0.9407 0.0005 0.0000
vt 0.9728 0.0316 0.0000
# 84 texture coords

g Box001
usemtl 09___Default
s 2
f 1/1/1 2/2/1 3/3/1 4/4/1 
s 8
f 1/1/2 4/5/2 5/6/2 6/7/2 
s 16
f 4/8/3 3/9/3 7/10/3 5/11/3 
s 32
f 3/9/4 2/2/4 8/12/4 7/10/4 
s 64
f 2/2/5 1/1/5 6/7/5 8/12/5 
s off
f 6/7/6 5/6/6 9/13/6 10/14/6 
f 5/11/7 7/10/7 11/15/7 9/16/7 
f 7/10/8 8/12/8 12/17/8 11/15/8 
f 8/12/9 6/7/9 10/14/9 12/17/9 
f 10/14/10 9/13/10 13/18/10 14/19/10 
f 9/16/11 11/15/11 15/20/11 13/21/11 
f 11/15/12 12/17/12 16/22/12 15/20/12 
f 12/17/13 10/14/13 14/19/13 16/22/13 
f 14/23/14 13/24/14 17/25/14 18/26/14 
f 13/24/15 15/27/15 19/28/15 17/25/15 
f 15/27/16 16/29/16 20/30/16 19/28/16 
f 16/29/17 14/23/17 18/26/17 20/30/17 
f 18/26/18 17/25/18 21/31/18 22/32/18 
f 17/25/19 19/28/19 23/33/19 21/34/19 
f 19/28/20 20/30/20 24/35/20 23/36/20 
f 20/30/21 18/26/21 22/37/21 24/38/21 
f 22/32/22 21/31/22 25/39/22 26/40/22 
f 21/34/23 23/33/23 27/41/23 25/42/23 
f 23/36/24 24/35/24 28/43/24 27/44/24 
f 24/38/25 22/37/25 26/45/25 28/46/25 
f 26/40/26 25/39/26 29/47/26 30/48/26 
f 25/42/27 27/41/27 31/49/27 29/50/27 
f 27/44/28 28/43/28 32/51/28 31/52/28 
f 28/46/29 26/45/29 30/53/29 32/54/29 
f 30/48/30 29/47/30 33/55/30 34/56/30 
f 29/50/31 31/49/31 35/57/31 33/58/31 
f 31/52/32 32/51/32 36/59/32 35/60/32 
f 32/54/33 30/53/33 34/61/33 36/62/33 
f 34/56/34 33/55/34 37/63/34 38/64/34 
f 33/58/35 35/57/35 39/65/35 37/66/35 
f 35/60/36 36/59/36 40/67/36 39/68/36 
f 36/62/37 34/61/37 38/69/37 40/70/37 
f 38/64/38 37/63/38 41/71/38 42/72/38 
f 37/66/39 39/65/39 43/73/39 41/74/39 
f 39/68/40 40/67/40 44/75/40 43/76/40 
f 40/70/41 38/69/41 42/77/41 44/78/41 
f 42/72/42 41/71/42 45/79/42 
f 41/74/43 43/73/43 46/80/43 45/81/43 
f 43/76/44 44/75/44 46/82/44 
f 44/78/45 42/77/45 45/83/45 46/84/45 
# 43 polygons - 2 triangles

