# 3ds Max Wavefront OBJ Exporter v0.97b - (c)2007 guruware
# File Created: 16.12.2017 07:40:42

mtllib Present.mtl

#
# object Box004
#

v  0.2023 0.0000 -0.2059
v  0.2023 0.0000 0.2059
v  -0.2023 0.0000 0.2059
v  -0.2023 0.0000 -0.2059
v  0.2023 4.7118 0.2059
v  0.2023 4.7118 -0.2059
v  -0.2023 4.7118 -0.2059
v  -0.2023 4.7118 0.2059
v  -0.2023 0.0000 2.6148
v  0.2023 0.0000 2.6148
v  0.2023 4.5179 2.6148
v  -0.2023 4.5179 2.6148
v  2.5685 0.0000 0.2059
v  2.5685 0.0000 -0.2059
v  2.5685 4.5179 -0.2059
v  2.5685 4.5179 0.2059
v  0.2023 0.0000 -2.6148
v  -0.2023 0.0000 -2.6148
v  -0.2023 4.5179 -2.6148
v  0.2023 4.5179 -2.6148
v  -2.5685 0.0000 -0.2059
v  -2.5685 0.0000 0.2059
v  -2.5685 4.5179 0.2059
v  -2.5685 4.5179 -0.2059
v  0.2023 4.5179 -0.2059
v  0.2023 4.5179 0.2059
v  -0.2023 4.5179 0.2059
v  -0.2023 4.5179 -0.2059
v  2.5685 0.0000 2.6148
v  2.5685 4.5179 2.6148
v  -2.5685 4.5179 2.6148
v  -2.5685 0.0000 2.6148
v  -2.5685 0.0000 -2.6148
v  -2.5685 4.5179 -2.6148
v  2.5685 4.5179 -2.6148
v  2.5685 0.0000 -2.6148
v  2.7748 5.7349 1.3323
v  2.7748 5.7349 -1.3323
v  2.7748 6.6787 -1.3323
v  2.7748 6.6787 1.3323
v  -2.7748 5.7349 -1.3323
v  -2.7748 5.7349 1.3323
v  -2.7748 6.6787 1.3323
v  -2.7748 6.6787 -1.3323
v  0.5209 4.8401 -0.2115
v  0.5209 4.7077 -0.2115
v  2.2776 6.1832 -0.9807
v  2.2776 5.5387 -0.9807
v  0.4581 4.7556 0.3012
v  0.4581 4.8881 0.3012
v  2.2148 5.5867 1.0704
v  2.2148 6.2312 1.0704
v  -0.5837 4.8881 0.3012
v  -0.5837 4.7556 0.3012
v  -2.3404 6.2312 1.0704
v  -2.3404 5.5867 1.0704
v  -0.5209 4.7077 -0.2115
v  -0.5209 4.8401 -0.2115
v  -2.2776 5.5387 -0.9807
v  -2.2776 6.1832 -0.9807
# 60 vertices

vn 0.0000 -1.0000 -0.0000
vn 0.0000 1.0000 -0.0000
vn 0.0000 0.0000 1.0000
vn 1.0000 0.0000 -0.0000
vn 0.0000 0.0000 -1.0000
vn -1.0000 0.0000 -0.0000
vn -0.0000 0.0000 -1.0000
vn 0.4277 -0.9039 -0.0000
vn -0.6074 0.7944 -0.0000
vn -0.4277 -0.9039 -0.0000
vn 0.6074 0.7944 -0.0000
vn -0.0237 0.0000 -0.9997
vn 0.3111 -0.8029 -0.5085
vn -0.6933 0.0000 -0.7207
vn -0.5064 0.8432 -0.1805
vn -0.4520 0.0000 0.8920
vn -0.5594 0.1584 0.8136
vn -0.5367 0.0000 0.8438
vn 0.1924 -0.7471 0.6362
vn 0.3217 0.0000 0.9468
vn -0.0387 -0.6450 0.7632
vn 0.6341 0.0000 0.7732
vn 0.5786 0.7033 0.4129
vn 0.0237 0.0000 -0.9997
vn 0.5064 0.8432 -0.1805
vn 0.6933 0.0000 -0.7207
vn -0.3111 -0.8029 -0.5085
vn 0.9997 0.0000 0.0225
vn -0.9960 0.0000 -0.0897
vn 0.4276 0.9039 -0.0095
vn 0.9960 0.0000 0.0897
vn -0.9997 0.0000 -0.0225
vn -0.4273 0.9032 -0.0403
vn -0.6074 -0.7944 -0.0000
vn 0.6068 -0.7936 0.0437
# 35 vertex normals

vt 0.3492 0.8025 0.0000
vt 0.3492 0.8222 0.0000
vt 0.3298 0.8222 0.0000
vt 0.3298 0.8025 0.0000
vt 0.8012 0.6268 0.0000
vt 0.7768 0.6267 0.0000
vt 0.7770 0.6064 0.0000
vt 0.8015 0.6067 0.0000
vt 0.3297 0.0005 0.0000
vt 0.3493 0.0005 0.0000
vt 0.3493 0.2190 0.0000
vt 0.3298 0.2190 0.0000
vt 0.6782 0.3343 0.0000
vt 0.6782 0.3540 0.0000
vt 0.4626 0.3544 0.0000
vt 0.4626 0.3347 0.0000
vt 0.3492 0.6873 0.0000
vt 0.3298 0.6873 0.0000
vt 0.3298 0.4697 0.0000
vt 0.3492 0.4697 0.0000
vt 0.0008 0.3540 0.0000
vt 0.0008 0.3343 0.0000
vt 0.2164 0.3347 0.0000
vt 0.2164 0.3544 0.0000
vt 0.4624 0.8025 0.0000
vt 0.4624 0.8222 0.0000
vt 0.2167 0.8222 0.0000
vt 0.2167 0.8025 0.0000
vt 0.3492 0.3542 0.0000
vt 0.3492 0.3345 0.0000
vt 0.3298 0.3345 0.0000
vt 0.3298 0.3542 0.0000
vt 0.4637 0.0005 0.0000
vt 0.4628 0.2194 0.0000
vt 0.2163 0.2194 0.0000
vt 0.2153 0.0005 0.0000
vt 0.2162 0.6873 0.0000
vt 0.2161 0.4696 0.0000
vt 0.4629 0.4696 0.0000
vt 0.4628 0.6873 0.0000
vt 0.3492 0.9374 0.0000
vt 0.3298 0.9374 0.0000
vt 0.6785 0.4689 0.0000
vt 0.6779 0.2194 0.0000
vt 0.0011 0.2194 0.0000
vt 0.0005 0.4689 0.0000
vt 0.4624 0.9374 0.0000
vt 0.2167 0.9374 0.0000
vt 0.8677 0.8119 0.0000
vt 0.7078 0.8110 0.0000
vt 0.7080 0.7694 0.0000
vt 0.8680 0.7702 0.0000
vt 0.7702 0.6229 0.0000
vt 0.7705 0.6103 0.0000
vt 0.7103 0.4212 0.0000
vt 0.8702 0.4223 0.0000
vt 0.8700 0.4639 0.0000
vt 0.7100 0.4628 0.0000
vt 0.8083 0.6105 0.0000
vt 0.8088 0.6233 0.0000
vt 0.7993 0.9370 0.0000
vt 0.7746 0.9368 0.0000
vt 0.7787 0.2962 0.0000
vt 0.8034 0.2964 0.0000
vt 0.7658 0.6381 0.0000
vt 0.7632 0.6345 0.0000
vt 0.7172 0.7337 0.0000
vt 0.6750 0.8183 0.0000
vt 0.6775 0.7921 0.0000
vt 0.7019 0.6238 0.0000
vt 0.6971 0.6367 0.0000
vt 0.8102 0.6385 0.0000
vt 0.8069 0.6414 0.0000
vt 0.8993 0.7280 0.0000
vt 0.8795 0.7217 0.0000
vt 0.8971 0.7902 0.0000
vt 0.8969 0.8186 0.0000
vt 0.8539 0.7380 0.0000
vt 0.8130 0.5899 0.0000
vt 0.8161 0.5933 0.0000
vt 0.8607 0.4940 0.0000
vt 0.8973 0.4170 0.0000
vt 0.8948 0.4433 0.0000
vt 0.8995 0.5146 0.0000
vt 0.8818 0.5107 0.0000
vt 0.7634 0.5982 0.0000
vt 0.7661 0.5949 0.0000
vt 0.7016 0.5983 0.0000
vt 0.7110 0.5927 0.0000
vt 0.6797 0.4408 0.0000
vt 0.6799 0.4124 0.0000
vt 0.7188 0.4986 0.0000
vt 0.9974 0.4169 0.0000
vt 0.9995 0.4411 0.0000
vt 0.9808 0.3367 0.0000
vt 0.9721 0.3552 0.0000
vt 0.9251 0.3584 0.0000
vt 0.9107 0.3415 0.0000
vt 0.6333 0.8763 0.0000
vt 0.6328 0.8806 0.0000
vt 0.6101 0.8813 0.0000
vt 0.6100 0.8771 0.0000
vt 0.5750 0.8150 0.0000
vt 0.5728 0.7907 0.0000
vt 0.6809 0.5759 0.0000
vt 0.6203 0.5180 0.0000
vt 0.6238 0.7062 0.0000
vt 0.6768 0.6426 0.0000
# 108 texture coords

g Box004
usemtl 09___Default
s 2
f 1/1/1 2/2/1 3/3/1 4/4/1 
s 4
f 5/5/2 6/6/2 7/7/2 8/8/2 
s 8
f 9/9/3 10/10/3 11/11/3 12/12/3 
s 16
f 13/13/4 14/14/4 15/15/4 16/16/4 
s 32
f 17/17/5 18/18/5 19/19/5 20/20/5 
s 64
f 21/21/6 22/22/6 23/23/6 24/24/6 
s 2
f 14/25/1 13/26/1 2/2/1 1/1/1 
f 22/27/1 21/28/1 4/4/1 3/3/1 
s 4
f 16/16/2 15/15/2 25/29/2 26/30/2 
f 24/24/2 23/23/2 27/31/2 28/32/2 
s 8
f 10/10/3 29/33/3 30/34/3 11/11/3 
f 12/12/3 31/35/3 32/36/3 9/9/3 
s 32
f 18/18/5 33/37/5 34/38/5 19/19/5 
f 20/20/5 35/39/5 36/40/5 17/17/5 
s 2
f 2/2/1 10/41/1 9/42/1 3/3/1 
f 4/4/1 18/18/1 17/17/1 1/1/1 
s 4
f 25/29/2 20/20/2 19/19/2 28/32/2 
f 27/31/2 12/12/2 11/11/2 26/30/2 
s 16
f 14/14/4 36/43/4 35/39/4 15/15/4 
f 16/16/4 30/34/4 29/44/4 13/13/4 
s 64
f 22/22/6 32/45/6 31/35/6 23/23/6 
f 24/24/6 34/38/6 33/46/6 21/21/6 
s 2
f 13/26/1 29/47/1 10/41/1 2/2/1 
f 1/1/1 17/17/1 36/40/1 14/25/1 
f 21/28/1 33/37/1 18/18/1 4/4/1 
f 3/3/1 9/42/1 32/48/1 22/27/1 
s 4
f 15/15/2 35/39/2 20/20/2 25/29/2 
f 26/30/2 11/11/2 30/34/2 16/16/2 
f 23/23/2 31/35/2 12/12/2 27/31/2 
f 28/32/2 19/19/2 34/38/2 24/24/2 
s off
f 37/49/4 38/50/4 39/51/4 40/52/4 
f 25/53/7 28/54/7 7/7/7 6/6/7 
f 41/55/6 42/56/6 43/57/6 44/58/6 
f 27/59/3 26/60/3 5/5/3 8/8/3 
f 26/61/8 25/62/8 38/50/8 37/49/8 
f 6/6/9 5/5/9 40/52/9 39/51/9 
f 28/63/10 27/64/10 42/56/10 41/55/10 
f 8/8/11 7/7/11 44/58/11 43/57/11 
f 25/53/12 6/6/12 45/65/12 46/66/12 
f 6/6/13 39/51/13 47/67/13 45/65/13 
f 39/51/14 38/50/14 48/68/14 47/69/14 
f 38/70/15 25/53/15 46/66/15 48/71/15 
f 5/5/16 26/60/16 49/72/16 50/73/16 
f 26/60/17 37/74/17 51/75/17 49/72/17 
f 37/49/18 40/52/18 52/76/18 51/77/18 
f 40/52/19 5/5/19 50/73/19 52/78/19 
f 27/59/20 8/8/20 53/79/20 54/80/20 
f 8/8/21 43/57/21 55/81/21 53/79/21 
f 43/57/22 42/56/22 56/82/22 55/83/22 
f 42/84/23 27/59/23 54/80/23 56/85/23 
f 7/7/24 28/54/24 57/86/24 58/87/24 
f 28/54/25 41/88/25 59/89/25 57/86/25 
f 41/55/26 44/58/26 60/90/26 59/91/26 
f 44/58/27 7/7/27 58/87/27 60/92/27 
f 59/93/28 60/94/28 55/83/28 56/82/28 
f 58/95/29 57/96/29 54/97/29 53/98/29 
f 56/82/30 54/97/30 57/96/30 59/93/30 
f 46/99/31 45/100/31 50/101/31 49/102/31 
f 47/69/32 48/68/32 51/103/32 52/104/32 
f 48/68/33 46/99/33 49/102/33 51/103/33 
f 60/92/34 58/87/34 53/105/34 55/106/34 
f 45/65/35 47/67/35 52/107/35 50/108/35 
# 62 polygons

